<?xml version="1.0" encoding="utf-8"?>
<!-- Generator: Adobe Illustrator 25.3.1, SVG Export Plug-In . SVG Version: 6.00 Build 0)  -->
<svg version="1.1" id="katman_1" xmlns="http://www.w3.org/2000/svg" xmlns:xlink="http://www.w3.org/1999/xlink" x="0px" y="0px"
	 viewBox="0 0 72 72" style="enable-background:new 0 0 72 72;" xml:space="preserve">
<style type="text/css">
	.st0{fill:#AA14F0;}
</style>
<path class="st0" d="M57,0H15C6.7,0,0,6.7,0,15v42c0,8.3,6.7,15,15,15h42c8.3,0,15-6.7,15-15V15C72,6.7,65.3,0,57,0z M24,57h-9V24h9
	V57z M19.5,20.2c-2.9,0-5.2-2.4-5.2-5.3s2.4-5.3,5.2-5.3s5.2,2.4,5.2,5.3S22.4,20.2,19.5,20.2z M60,57h-9V40.2c0-10.1-12-9.3-12,0
	V57h-9V24h9v5.3c4.2-7.8,21-8.3,21,7.4V57z"/>
</svg>
